<svg width="68" height="66" viewBox="0 0 68 66" fill="none" xmlns="http://www.w3.org/2000/svg">
<g clip-path="url(#clip0_7_34)">
<path d="M50.393 0.00398661C40.438 -0.212013 32.146 7.63799 31.9 17.512L31.776 22.483C31.742 23.839 32.833 24.973 34.2 25.003C35.567 25.032 36.713 23.947 36.746 22.591L36.871 17.62C37.049 10.471 43.062 4.77799 50.271 4.93399C57.478 5.09099 63.201 11.038 63.023 18.187C62.844 25.335 56.831 31.029 49.623 30.872L18.5 30.197C8.54499 29.981 0.252987 37.831 0.00698678 47.705C-0.240013 57.579 7.65099 65.78 17.607 65.995C27.562 66.211 35.854 58.362 36.1 48.488L36.223 43.572C36.257 42.215 35.166 41.082 33.799 41.052C32.432 41.022 31.286 42.108 31.252 43.464L31.129 48.38C30.951 55.529 24.938 61.222 17.729 61.066C10.522 60.909 4.79899 54.962 4.97699 47.813C5.15599 40.664 11.169 34.971 18.377 35.127L49.5 35.802C59.456 36.018 67.747 28.169 67.994 18.295C68.24 8.41999 60.349 0.219987 50.394 0.00498661L50.393 0.00398661Z" fill="#3172B9"/>
</g>
<defs>
<clipPath id="clip0_7_34">
<rect width="68" height="66" fill="white"/>
</clipPath>
</defs>
</svg>
